PathFileType	4	(X/Y/Z)	D:\Vicon data\Senior Design EMG regression\Subject 2- Oliver\Session 3\oliver- static trial.trc
DataRate	CameraRate	NumFrames	NumMarkers	Units	OrigDataRate	OrigDataStartFrame	OrigNumFrames
100.0	100.0	4	60	mm	100.0	424	565	
Frame#	Time	HEAD			C7			CLAV			STUR			LSHO			LHAR2			LHME			LRAH			LRAD			LULN			LMCM			RSHO			RHAR2			RHME			RRAH			RRAD			RULN			RMCM			LASI			RASI			LPSI			RPSI			LLAT			LLFC			LKNE			LLAN			LHEE			LTOE			RLAT			RLFC			RKNE			RLAN			RHEE			RTOE			RSMT			RMAN			LSMT			LMAN			RSAT1			RSAT			RMFC			LSAT1			LSAT			LMFC			BARB			RHAR1			RHGT			RHHB			RHHF			RHLE			RMCR			RMCA			RMCI			LHHF			LHHB			LHGT			LHAR1			LHLE			LMCR			LMCI			
		X1	Y1	Z1	X2	Y2	Z2	X3	Y3	Z3	X4	Y4	Z4	X5	Y5	Z5	X6	Y6	Z6	X7	Y7	Z7	X8	Y8	Z8	X9	Y9	Z9	X10	Y10	Z10	X11	Y11	Z11	X12	Y12	Z12	X13	Y13	Z13	X14	Y14	Z14	X15	Y15	Z15	X16	Y16	Z16	X17	Y17	Z17	X18	Y18	Z18	X19	Y19	Z19	X20	Y20	Z20	X21	Y21	Z21	X22	Y22	Z22	X23	Y23	Z23	X24	Y24	Z24	X25	Y25	Z25	X26	Y26	Z26	X27	Y27	Z27	X28	Y28	Z28	X29	Y29	Z29	X30	Y30	Z30	X31	Y31	Z31	X32	Y32	Z32	X33	Y33	Z33	X34	Y34	Z34	X35	Y35	Z35	X36	Y36	Z36	X37	Y37	Z37	X38	Y38	Z38	X39	Y39	Z39	X40	Y40	Z40	X41	Y41	Z41	X42	Y42	Z42	X43	Y43	Z43	X44	Y44	Z44	X45	Y45	Z45	X46	Y46	Z46	X47	Y47	Z47	X48	Y48	Z48	X49	Y49	Z49	X50	Y50	Z50	X51	Y51	Z51	X52	Y52	Z52	X53	Y53	Z53	X54	Y54	Z54	X55	Y55	Z55	X56	Y56	Z56	X57	Y57	Z57	X58	Y58	Z58	X59	Y59	Z59	X60	Y60	Z60	
424	4.23	-1.7092096	1659.6783	-409.54376	5.0411134	1486.0715	-191.72273	7.3815298	1421.693	-328.10995	7.1013079	1220.9944	-385.53903	-152.11336	1478.7931	-254.39355	-318.18362	1429.1519	-308.89575	-405.49316	1302.246	-344.73691	-372.08621	1382.3093	-386.79218	-362.19748	1363.0922	-574.54987	-438.41867	1357.3024	-576.04248	-386.37259	1371.7198	-661.90759	166.92188	1461.5352	-232.72092	315.3168	1413.302	-285.78284	424.73279	1383.1541	-295.66257	404.8761	1378.0269	-339.59219	416.34521	1343.0802	-535.49054	487.78268	1361.9155	-531.28156	452.58267	1346.2352	-629.65039	-82.01947	925.10474	-394.27744	134.27945	942.16595	-386.37735	-16.045046	990.66034	-165.31203	61.856014	990.46838	-163.22353	-130.98218	581.93176	-326.93039	-117.2837	489.90268	-309.4744	-72.508171	435.35425	-337.53275	-125.83226	93.534264	-225.74626	-82.978256	73.638321	-163.18546	-90.401672	48.666077	-427.24789	214.88261	725.7356	-293.86459	140.45927	486.19537	-307.48239	99.111603	449.1344	-326.69476	149.9929	88.590996	-220.17668	104.61264	71.750488	-165.24689	113.64195	54.295414	-422.53281	166.73999	53.836746	-360.3916	67.134453	98.680794	-239.09015	-148.55478	54.598629	-346.0777	-38.943386	95.072456	-241.47359	156.79213	814.06494	-390.20181	119.05505	605.83588	-369.91891	43.104942	470.3042	-287.50418	-77.149666	791.18744	-418.08752	-85.08197	637.85632	-391.19147	-14.476694	471.97324	-308.70844	57.75695	1234.261	-144.30476	380.67279	1376.3132	-242.61674	274.4808	1431.1211	-228.39655	185.93155	1375.1975	-168.45276	176.70879	1425.7029	-317.95737				476.27487	1342.603	-620.96045	493.14725	1347.345	-590.65839	428.82336	1348.0542	-628.14819	-153.24023	1429.3256	-336.17859	-192.3006	1415.2842	-211.29398	-258.12347	1464.2958	-277.83408	-374.76364	1396.0331	-271.15488	-415.18109	1404.3054	-329.22891	-411.70465	1366.7854	-661.25012	-357.01212	1367.4698	-662.07153
425	4.24	-1.7282228	1659.7133	-409.49063	5.1066551	1486.0746	-191.71793	7.383328	1421.7142	-328.1687	7.0584092	1221.006	-385.51047	-152.1003	1478.8544	-254.38202	-318.12155	1429.0283	-308.96561	-405.29785	1302.0381	-344.75839	-371.99893	1382.0759	-386.82718	-362.13809	1362.739	-574.52484	-438.35522	1356.9398	-576.07568	-386.36472	1371.2148	-662.12878	166.94757	1461.5176	-232.74922	315.32437	1413.1975	-285.79074	424.78955	1383.1456	-295.60626	404.84436	1377.848	-339.60934	416.28778	1342.8098	-535.53638	487.67664	1361.6344	-531.3233	452.4809	1345.975	-629.74945	-82.025673	925.11676	-394.27579	134.28752	942.18317	-386.3988	-16.051651	990.67987	-165.30617	61.861473	990.47388	-163.30048	-130.93991	581.96222	-326.96448	-117.2874	489.91754	-309.4567	-72.502716	435.33401	-337.55353	-125.85378	93.565659	-225.74927	-82.995461	73.680656	-163.17346	-90.410187	48.672085	-427.22726	214.88344	725.72217	-293.9097	140.45525	486.19788	-307.49698	99.120316	449.14825	-326.71783	150.01709	88.624161	-220.18752	104.65162	71.76989	-165.2487	113.64542	54.305733	-422.53592	166.75507	53.848625	-360.36142	67.175308	98.663696	-239.13785	-148.55119	54.607346	-346.09418	-38.946007	95.070114	-241.44531	156.80817	814.08307	-390.23236	119.03938	605.82623	-369.91809	43.115112	470.31622	-287.59662	-77.134636	791.1958	-418.10681	-85.05217	637.86218	-391.21945	-14.477639	471.99792	-308.7334	57.77932	1234.2703	-144.30484	380.67142	1376.2241	-242.58771	274.49728	1431.0551	-228.43629	185.96054	1375.1631	-168.44403	176.70576	1425.6289	-317.98032				476.28424	1342.3353	-621.02753	493.02594	1347.0449	-590.68384	428.73239	1347.7306	-628.18781	-153.25371	1429.4565	-336.12366	-192.25832	1415.3601	-211.25479	-258.10233	1464.2573	-277.83328	-374.66434	1395.8745	-271.19421	-415.11908	1404.0376	-329.20566	-411.60736	1366.2698	-661.4259	-356.9223	1367.0685	-662.10443
426	4.25	-1.7308472	1659.7394	-409.46655	5.1490459	1486.0547	-191.72014	7.3926315	1421.697	-328.25909	7.0137858	1220.9191	-385.47229	-152.10187	1478.8595	-254.41898	-318.04233	1428.861	-309.05072	-405.12653	1301.7963	-344.73788	-371.9437	1381.8185	-386.87827	-362.05103	1362.3983	-574.48621	-438.28592	1356.5692	-576.12775	-386.24908	1370.7753	-662.07507	166.99066	1461.4443	-232.79395	315.35388	1413.0636	-285.81924	424.76935	1382.806	-295.78125	404.73251	1377.5476	-339.64603	416.19708	1342.4741	-535.60114	487.629	1361.3512	-531.36371	452.33853	1345.6099	-629.80133	-81.984047	925.1037	-394.3248	134.32562	942.18988	-386.41339	-16.049597	990.63007	-165.3553	61.865112	990.44775	-163.30022	-130.90794	581.91846	-327.02936	-117.26408	489.89557	-309.53616	-72.493912	435.34921	-337.62405	-125.79738	93.545441	-225.78757	-82.981308	73.652924	-163.19786	-90.400009	48.653522	-427.23541	214.91492	725.70642	-293.94168	140.49171	486.18042	-307.53192	99.162125	449.12723	-326.75449	150.02533	88.580437	-220.19843	104.64799	71.750961	-165.24599	113.65313	54.277706	-422.55933	166.77606	53.829857	-360.36072	67.174065	98.640381	-239.166	-148.53389	54.595039	-346.11435	-38.901604	95.080139	-241.48228	156.78372	814.05316	-390.24356	119.06271	605.83124	-369.95035	43.147747	470.28513	-287.62103	-77.090683	791.18829	-418.12631	-85.037239	637.87274	-391.25507	-14.444149	471.94803	-308.72507	57.808895	1234.2527	-144.30371	380.6795	1376.0901	-242.62424	274.48541	1430.9628	-228.47784	185.97302	1375.1046	-168.47202	176.70132	1425.5723	-318.00955				476.17804	1342.0199	-621.04102	492.95633	1346.7151	-590.7262	428.60883	1347.2864	-628.1897	-153.24858	1429.4667	-336.11807	-192.24718	1415.3823	-211.25687	-258.10126	1464.158	-277.93546	-374.5939	1395.6794	-271.23999	-415.06516	1403.7675	-329.26477	-411.54633	1365.9178	-661.30695	-356.80811	1366.6565	-662.17023
427	4.26	-1.7476664	1659.7682	-409.44537	5.2004738	1486.0565	-191.73741	7.3993969	1421.6722	-328.31995	6.9695826	1220.8794	-385.42212	-152.10709	1478.8516	-254.4657	-317.98969	1428.6964	-309.08456	-401.45862	1302.5615	-346.33719	-371.92133	1381.6467	-386.9343	-361.98285	1362.019	-574.48889	-438.21298	1356.1339	-576.17401	-386.16559	1370.2739	-662.25146	167.0043	1461.4164	-232.82413	315.3299	1412.9351	-285.88446	424.94177	1382.6113	-295.85938	404.56464	1377.3196	-339.65887	416.08496	1342.1595	-535.62543	487.53052	1361.079	-531.42731	452.24622	1345.2478	-629.91754	-81.978584	925.1051	-394.33047	134.29613	942.17865	-386.41104	-16.067291	990.64948	-165.36729	61.845207	990.44421	-163.35426	-130.90828	581.92279	-327.06522	-117.24796	489.89285	-309.5787	-72.493675	435.34451	-337.63446	-125.82706	93.605957	-225.81006	-82.983429	73.673874	-163.2077	-90.408394	48.665619	-427.25363	214.9108	725.72394	-293.97644	140.48996	486.18475	-307.56671	99.136803	449.12524	-326.77155	150.03017	88.603752	-220.17419	104.67419	71.772507	-165.25539	113.64343	54.291229	-422.54846	166.75113	53.836288	-360.37271	67.188843	98.66507	-239.129	-148.53088	54.606384	-346.11865	-38.929134	95.080856	-241.48167	156.8063	814.09149	-390.28833	119.06905	605.87579	-369.97781	43.16544	470.29715	-287.67743	-77.064598	791.21161	-418.18521	-85.037521	637.86829	-391.2995	-14.433186	471.96689	-308.79007	57.804638	1234.2573	-144.31537	380.63913	1376.0656	-242.60994	274.49429	1430.9041	-228.52678	185.98526	1375.0803	-168.49191	176.69456	1425.5032	-318.01764				476.04324	1341.6919	-621.10596	492.83765	1346.4038	-590.80853	428.47366	1346.8743	-628.12958	-153.27451	1429.4077	-336.09821	-192.22739	1415.4186	-211.28854	-258.07465	1464.076	-278.05933	-374.5658	1395.4865	-271.26343	-415.03778	1403.5148	-329.2796	-411.47772	1365.2823	-661.59027	-356.72324	1366.2001	-662.22211
